<svg width="2885" height="2836" viewBox="0 0 2885 2836" fill="none" xmlns="http://www.w3.org/2000/svg">
<g clip-path="url(#clip0_2311_2805)">
<rect width="2885" height="2836" fill="url(#paint0_linear_2311_2805)"/>
<path fill-rule="evenodd" clip-rule="evenodd" d="M234.569 865.961C201.847 879.339 166.422 887.696 129.184 890.019C50.264 894.942 -23.9489 871.966 -83.8299 829.584C-113.86 852.845 -151.551 866.69 -192.476 866.69C-257.805 866.69 -314.894 831.411 -345.73 778.865C-364.295 787.05 -384.826 791.595 -406.419 791.595C-489.583 791.595 -557 724.178 -557 641.014C-557 557.85 -489.583 490.433 -406.419 490.433C-393.819 490.433 -381.58 491.98 -369.883 494.896C-365.447 379.356 -270.381 287.051 -153.755 287.051C-133.855 287.051 -114.582 289.738 -96.2801 294.77C-45.1663 254.878 18.103 229.461 87.7019 225.119C219.612 216.889 338.371 286.604 399.038 394.6C429.111 374.633 465.197 363.001 504 363.001C603.331 363.001 684.858 439.224 693.282 536.37C703.873 533.52 715.009 532 726.5 532C796.916 532 854 589.084 854 659.5C854 729.916 796.916 787 726.5 787C724.406 787 722.324 786.95 720.255 786.85C694.758 814.605 658.16 832.001 617.5 832.001C591.995 832.001 568.089 825.156 547.517 813.203C523.593 884.48 456.251 935.831 376.915 935.831C319 935.831 267.476 908.466 234.569 865.961Z" fill="url(#paint1_linear_2311_2805)"/>
<path fill-rule="evenodd" clip-rule="evenodd" d="M2991.79 720.282C2916.86 789.702 2818.4 834.678 2708.5 841.534C2577.27 849.722 2455.47 801.947 2366.41 718.76C2325.2 776.048 2257.96 813.354 2182 813.354C2098.49 813.354 2025.5 768.254 1986.08 701.081C1962.35 711.544 1936.1 717.354 1908.5 717.354C1802.19 717.354 1716 631.169 1716 524.854C1716 418.539 1802.19 332.354 1908.5 332.354C1924.61 332.354 1940.25 334.333 1955.21 338.06C1960.88 190.356 2082.41 72.3542 2231.5 72.3542C2265.09 72.3542 2297.29 78.3453 2327.07 89.3174C2405.11 -4.33236 2520.05 -66.9038 2651.31 -75.0934C2828.81 -86.1674 2989.04 5.13356 3074.38 147.96C3086.84 146.242 3099.57 145.354 3112.5 145.354C3246.08 145.354 3357.54 240.081 3383.36 366.025C3406.69 355.322 3432.65 349.354 3460 349.354C3561.62 349.354 3644 431.734 3644 533.354C3644 634.975 3561.62 717.354 3460 717.354C3420.65 717.354 3384.18 704.999 3354.26 683.957C3313.64 749.046 3241.38 792.354 3159 792.354C3093.13 792.354 3033.72 764.661 2991.79 720.282Z" fill="url(#paint2_linear_2311_2805)"/>
<path d="M475.311 236.673C476.922 232.319 483.078 232.319 484.689 236.673L490.816 253.23C491.322 254.598 492.402 255.678 493.77 256.184L510.327 262.311C514.681 263.922 514.681 270.078 510.327 271.689L493.77 277.816C492.402 278.322 491.322 279.402 490.816 280.77L484.689 297.327C483.078 301.681 476.922 301.681 475.311 297.327L469.184 280.77C468.678 279.402 467.598 278.322 466.23 277.816L449.673 271.689C445.319 270.078 445.319 263.922 449.673 262.311L466.23 256.184C467.598 255.678 468.678 254.598 469.184 253.23L475.311 236.673Z" fill="#D9FF6E" fill-opacity="0.4"/>
<path d="M600.311 1540.67C601.922 1536.32 608.078 1536.32 609.689 1540.67L615.816 1557.23C616.322 1558.6 617.402 1559.68 618.77 1560.18L635.327 1566.31C639.681 1567.92 639.681 1574.08 635.327 1575.69L618.77 1581.82C617.402 1582.32 616.322 1583.4 615.816 1584.77L609.689 1601.33C608.078 1605.68 601.922 1605.68 600.311 1601.33L594.184 1584.77C593.678 1583.4 592.598 1582.32 591.23 1581.82L574.673 1575.69C570.319 1574.08 570.319 1567.92 574.673 1566.31L591.23 1560.18C592.598 1559.68 593.678 1558.6 594.184 1557.23L600.311 1540.67Z" fill="#D9FF6E" fill-opacity="0.4"/>
<path d="M1862.31 193.673C1863.92 189.319 1870.08 189.319 1871.69 193.673L1877.82 210.23C1878.32 211.598 1879.4 212.678 1880.77 213.184L1897.33 219.311C1901.68 220.922 1901.68 227.078 1897.33 228.689L1880.77 234.816C1879.4 235.322 1878.32 236.402 1877.82 237.77L1871.69 254.327C1870.08 258.681 1863.92 258.681 1862.31 254.327L1856.18 237.77C1855.68 236.402 1854.6 235.322 1853.23 234.816L1836.67 228.689C1832.32 227.078 1832.32 220.922 1836.67 219.311L1853.23 213.184C1854.6 212.678 1855.68 211.598 1856.18 210.23L1862.31 193.673Z" fill="#D9FF6E" fill-opacity="0.4"/>
<path d="M101.311 948.673C102.922 944.319 109.078 944.319 110.689 948.673L116.816 965.23C117.322 966.598 118.402 967.678 119.77 968.184L136.327 974.311C140.681 975.922 140.681 982.078 136.327 983.689L119.77 989.816C118.402 990.322 117.322 991.402 116.816 992.77L110.689 1009.33C109.078 1013.68 102.922 1013.68 101.311 1009.33L95.184 992.77C94.6775 991.402 93.5985 990.322 92.2299 989.816L75.6725 983.689C71.3194 982.078 71.3194 975.922 75.6725 974.311L92.2299 968.184C93.5985 967.678 94.6775 966.598 95.184 965.23L101.311 948.673Z" fill="#D9FF6E" fill-opacity="0.4"/>
<path d="M1668.31 948.673C1669.92 944.319 1676.08 944.319 1677.69 948.673L1683.82 965.23C1684.32 966.598 1685.4 967.678 1686.77 968.184L1703.33 974.311C1707.68 975.922 1707.68 982.078 1703.33 983.689L1686.77 989.816C1685.4 990.322 1684.32 991.402 1683.82 992.77L1677.69 1009.33C1676.08 1013.68 1669.92 1013.68 1668.31 1009.33L1662.18 992.77C1661.68 991.402 1660.6 990.322 1659.23 989.816L1642.67 983.689C1638.32 982.078 1638.32 975.922 1642.67 974.311L1659.23 968.184C1660.6 967.678 1661.68 966.598 1662.18 965.23L1668.31 948.673Z" fill="#D9FF6E" fill-opacity="0.4"/>
<path d="M2797.31 1213.67C2798.92 1209.32 2805.08 1209.32 2806.69 1213.67L2812.82 1230.23C2813.32 1231.6 2814.4 1232.68 2815.77 1233.18L2832.33 1239.31C2836.68 1240.92 2836.68 1247.08 2832.33 1248.69L2815.77 1254.82C2814.4 1255.32 2813.32 1256.4 2812.82 1257.77L2806.69 1274.33C2805.08 1278.68 2798.92 1278.68 2797.31 1274.33L2791.18 1257.77C2790.68 1256.4 2789.6 1255.32 2788.23 1254.82L2771.67 1248.69C2767.32 1247.08 2767.32 1240.92 2771.67 1239.31L2788.23 1233.18C2789.6 1232.68 2790.68 1231.6 2791.18 1230.23L2797.31 1213.67Z" fill="#D9FF6E" fill-opacity="0.4"/>
<path d="M2675.31 1626.67C2676.92 1622.32 2683.08 1622.32 2684.69 1626.67L2690.82 1643.23C2691.32 1644.6 2692.4 1645.68 2693.77 1646.18L2710.33 1652.31C2714.68 1653.92 2714.68 1660.08 2710.33 1661.69L2693.77 1667.82C2692.4 1668.32 2691.32 1669.4 2690.82 1670.77L2684.69 1687.33C2683.08 1691.68 2676.92 1691.68 2675.31 1687.33L2669.18 1670.77C2668.68 1669.4 2667.6 1668.32 2666.23 1667.82L2649.67 1661.69C2645.32 1660.08 2645.32 1653.92 2649.67 1652.31L2666.23 1646.18C2667.6 1645.68 2668.68 1644.6 2669.18 1643.23L2675.31 1626.67Z" fill="#D9FF6E" fill-opacity="0.4"/>
<ellipse cx="1182" cy="1341" rx="430" ry="435" fill="url(#paint3_linear_2311_2805)"/>
<path fill-rule="evenodd" clip-rule="evenodd" d="M1923.79 2113.28C1848.86 2182.7 1750.4 2227.68 1640.5 2234.53C1509.27 2242.72 1387.47 2194.95 1298.41 2111.76C1257.2 2169.05 1189.96 2206.35 1114 2206.35C1030.49 2206.35 957.504 2161.25 918.083 2094.08C894.35 2104.54 868.103 2110.35 840.5 2110.35C734.185 2110.35 648 2024.17 648 1917.85C648 1811.54 734.185 1725.35 840.5 1725.35C856.608 1725.35 872.253 1727.33 887.207 1731.06C892.877 1583.36 1014.41 1465.35 1163.5 1465.35C1197.09 1465.35 1229.29 1471.35 1259.07 1482.32C1337.11 1388.67 1452.05 1326.1 1583.31 1317.91C1760.81 1306.83 1921.04 1398.13 2006.38 1540.96C2018.84 1539.24 2031.57 1538.35 2044.5 1538.35C2178.08 1538.35 2289.54 1633.08 2315.36 1759.03C2338.69 1748.32 2364.65 1742.35 2392 1742.35C2493.62 1742.35 2576 1824.73 2576 1926.35C2576 2027.97 2493.62 2110.35 2392 2110.35C2352.65 2110.35 2316.18 2098 2286.26 2076.96C2245.64 2142.05 2173.38 2185.35 2091 2185.35C2025.13 2185.35 1965.72 2157.66 1923.79 2113.28Z" fill="url(#paint4_linear_2311_2805)"/>
<ellipse cx="1510.48" cy="1210.16" rx="30.5" ry="31" transform="rotate(6.14328 1510.48 1210.16)" fill="url(#paint5_linear_2311_2805)"/>
<ellipse cx="1476.64" cy="1132.09" rx="30.5" ry="31" transform="rotate(6.14328 1476.64 1132.09)" fill="url(#paint6_linear_2311_2805)"/>
</g>
<defs>
<linearGradient id="paint0_linear_2311_2805" x1="1040.5" y1="-502" x2="1442.5" y2="2836" gradientUnits="userSpaceOnUse">
<stop stop-color="#4F42EC"/>
<stop offset="0.640625" stop-color="#563AFF"/>
<stop offset="1" stop-color="#5069F6"/>
</linearGradient>
<linearGradient id="paint1_linear_2311_2805" x1="268.828" y1="171" x2="268.828" y2="889.441" gradientUnits="userSpaceOnUse">
<stop stop-color="#D8FAF2"/>
<stop offset="1" stop-color="#DCEFF5" stop-opacity="0"/>
</linearGradient>
<linearGradient id="paint2_linear_2311_2805" x1="2680" y1="-76" x2="2680" y2="842.441" gradientUnits="userSpaceOnUse">
<stop stop-color="#D8FAF2"/>
<stop offset="1" stop-color="#DCEFF5" stop-opacity="0"/>
</linearGradient>
<linearGradient id="paint3_linear_2311_2805" x1="1182" y1="906" x2="1182" y2="1776" gradientUnits="userSpaceOnUse">
<stop stop-color="#E3E4A2"/>
<stop offset="1" stop-color="#C7E4A2" stop-opacity="0.6"/>
</linearGradient>
<linearGradient id="paint4_linear_2311_2805" x1="1612" y1="1317" x2="1612" y2="2235.44" gradientUnits="userSpaceOnUse">
<stop stop-color="#D8FAF2"/>
<stop offset="1" stop-color="#DCEFF5" stop-opacity="0"/>
</linearGradient>
<linearGradient id="paint5_linear_2311_2805" x1="1510.48" y1="1179.16" x2="1510.48" y2="1241.16" gradientUnits="userSpaceOnUse">
<stop stop-color="#E3E4A2"/>
<stop offset="1" stop-color="#C7E4A2" stop-opacity="0.6"/>
</linearGradient>
<linearGradient id="paint6_linear_2311_2805" x1="1476.64" y1="1101.09" x2="1476.64" y2="1163.09" gradientUnits="userSpaceOnUse">
<stop stop-color="#E3E4A2"/>
<stop offset="1" stop-color="#C7E4A2" stop-opacity="0.6"/>
</linearGradient>
<clipPath id="clip0_2311_2805">
<rect width="2885" height="2836" rx="1418" fill="white"/>
</clipPath>
</defs>
</svg>
